<?xml version="1.0" encoding="iso-8859-1"?>
<!-- Generator: Adobe Illustrator 19.0.0, SVG Export Plug-In . SVG Version: 6.00 Build 0)  -->
<svg version="1.1" id="Layer_1" xmlns="http://www.w3.org/2000/svg" xmlns:xlink="http://www.w3.org/1999/xlink" x="0px" y="0px"
	 viewBox="0 0 512 512" style="enable-background:new 0 0 512 512;" xml:space="preserve">
<g>
	<g>
		<path d="M256,51.2c-18.825,0-34.133,15.309-34.133,34.133v230.4c0,18.825,15.309,34.133,34.133,34.133
			s34.133-15.309,34.133-34.133v-230.4C290.133,66.509,274.825,51.2,256,51.2z M273.067,315.733c0,9.412-7.654,17.067-17.067,17.067
			c-9.412,0-17.067-7.654-17.067-17.067v-230.4c0-9.412,7.654-17.067,17.067-17.067c9.412,0,17.067,7.654,17.067,17.067V315.733z"/>
	</g>
</g>
<g>
	<g>
		<path d="M256,0c-41.097,0-85.333,10.684-85.333,34.133v358.4c0,4.71,3.814,8.533,8.533,8.533h42.667v86.554
			c0,13.44,11.486,24.38,25.6,24.38h17.067c14.114,0,25.6-10.94,25.6-24.38v-86.554H332.8c4.719,0,8.533-3.823,8.533-8.533v-358.4
			C341.333,10.684,297.097,0,256,0z M273.067,487.62c0,3.959-3.908,7.313-8.533,7.313h-17.067c-4.625,0-8.533-3.354-8.533-7.313
			v-86.554h34.133V487.62z M324.267,384H187.733V34.133c0-4.386,23.475-17.067,68.267-17.067c44.791,0,68.267,12.681,68.267,17.067
			V384z"/>
	</g>
</g>
<g>
</g>
<g>
</g>
<g>
</g>
<g>
</g>
<g>
</g>
<g>
</g>
<g>
</g>
<g>
</g>
<g>
</g>
<g>
</g>
<g>
</g>
<g>
</g>
<g>
</g>
<g>
</g>
<g>
</g>
</svg>
