<?xml version="1.0" encoding="iso-8859-1"?>
<!-- Generator: Adobe Illustrator 19.0.0, SVG Export Plug-In . SVG Version: 6.00 Build 0)  -->
<svg version="1.1" id="Layer_1" xmlns="http://www.w3.org/2000/svg" xmlns:xlink="http://www.w3.org/1999/xlink" x="0px" y="0px"
	 viewBox="0 0 512 512" style="enable-background:new 0 0 512 512;" xml:space="preserve">
<g>
	<g>
		<path d="M307.021,79.087C305.152,34.278,283.443,0,256,0s-49.152,34.278-51.021,79.087c-17.638,10.095-25.779,52.139-25.779,91.58
			v170.667c0,4.71,3.823,8.533,8.533,8.533H230.4V486.4c0,14.08,11.52,25.6,25.6,25.6c14.08,0,25.6-11.52,25.6-25.6V349.867h42.667
			c4.71,0,8.533-3.823,8.533-8.533V170.667C332.8,131.226,324.659,89.182,307.021,79.087z M221.867,170.667V332.8h-25.6V170.667
			c0-49.545,12.245-75.068,17.067-76.74c1.536,0.589,7.458,6.511,12.169,27.418C225.621,121.899,221.867,154.351,221.867,170.667z
			 M264.533,486.4c0,4.71-3.823,8.533-8.533,8.533c-4.71,0-8.533-3.823-8.533-8.533V349.867h17.067V486.4z M273.067,332.8h-34.133
			V170.667c0-49.954,12.459-75.529,16.939-76.809c4.736,1.28,17.195,26.854,17.195,76.809V332.8z M277.282,94.985
			C271.949,83.823,264.9,76.8,256,76.8c-8.9,0-15.949,7.023-21.282,18.193c-3.627-7.629-7.876-12.996-12.706-15.804
			c1.715-36.915,18.68-62.123,33.988-62.123s32.273,25.207,33.988,62.114C285.15,81.988,280.909,87.356,277.282,94.985z
			 M315.733,332.8h-25.6V170.667c0-16.29-3.755-48.751-3.627-49.323c4.762-21.171,10.795-26.999,12.117-27.443
			c4.779,1.51,17.109,27.051,17.109,76.766V332.8z"/>
	</g>
</g>
<g>
</g>
<g>
</g>
<g>
</g>
<g>
</g>
<g>
</g>
<g>
</g>
<g>
</g>
<g>
</g>
<g>
</g>
<g>
</g>
<g>
</g>
<g>
</g>
<g>
</g>
<g>
</g>
<g>
</g>
</svg>
