<?xml version="1.0" encoding="iso-8859-1"?>
<!-- Generator: Adobe Illustrator 19.0.0, SVG Export Plug-In . SVG Version: 6.00 Build 0)  -->
<svg version="1.1" id="Layer_1" xmlns="http://www.w3.org/2000/svg" xmlns:xlink="http://www.w3.org/1999/xlink" x="0px" y="0px"
	 viewBox="0 0 511.999 511.999" style="enable-background:new 0 0 511.999 511.999;" xml:space="preserve">
<g>
	<g>
		<path d="M452.861,101.551c-4.855-48.621-31.99-86.116-70.79-97.848c-40.617-12.279-86.158,6.391-126.067,51.343
			C216.086,10.085,170.545-8.593,129.911,3.694c-38.791,11.724-65.909,49.21-70.773,97.814
			c-3.2,31.956-1.357,142.092,154.167,227.73c-0.495,36.974-6.425,60.986-11.229,80.441c-3.115,12.586-5.802,23.466-5.802,34.055
			c0,37.639,26.794,68.264,59.731,68.264s59.731-30.625,59.731-68.264c0-10.999-2.731-22.015-5.888-34.772
			c-4.761-19.234-10.641-42.964-11.144-79.639C454.235,243.678,456.061,133.525,452.861,101.551z M256.004,494.933
			c-23.526,0-42.665-22.962-42.665-51.198c0-8.516,2.338-17.979,5.299-29.96c4.608-18.653,10.735-43.868,11.596-80.97h51.54
			c0.853,36.812,6.929,61.779,11.503,80.253c3.012,12.16,5.393,21.759,5.393,30.676
			C298.669,471.962,279.529,494.933,256.004,494.933z M287.917,315.739h-63.674C75.24,234.906,73.175,132.697,76.127,103.207
			c4.096-40.984,27.152-73.632,58.724-83.18c6.528-1.971,13.243-2.944,20.087-2.944c30.864,0,64.314,19.754,94.469,56.523
			c3.243,3.951,9.95,3.951,13.192,0c36.837-44.909,78.589-64.424,114.539-53.562c31.589,9.557,54.646,42.222,58.741,83.214
			C438.833,132.74,436.768,234.914,287.917,315.739z"/>
	</g>
</g>
<g>
</g>
<g>
</g>
<g>
</g>
<g>
</g>
<g>
</g>
<g>
</g>
<g>
</g>
<g>
</g>
<g>
</g>
<g>
</g>
<g>
</g>
<g>
</g>
<g>
</g>
<g>
</g>
<g>
</g>
</svg>
