<?xml version="1.0" encoding="iso-8859-1"?>
<!-- Generator: Adobe Illustrator 19.0.0, SVG Export Plug-In . SVG Version: 6.00 Build 0)  -->
<svg version="1.1" id="Layer_1" xmlns="http://www.w3.org/2000/svg" xmlns:xlink="http://www.w3.org/1999/xlink" x="0px" y="0px"
	 viewBox="0 0 512 512" style="enable-background:new 0 0 512 512;" xml:space="preserve">
<g>
	<g>
		<path d="M374.144,339.686L359.552,32.512C358.682,14.276,343.706,0,325.461,0H186.547c-18.244,0-33.22,14.276-34.091,32.512
			l-14.601,307.157c-0.461,9.421,2.867,18.372,9.378,25.207c6.502,6.827,15.283,10.59,24.713,10.59h49.92V486.4
			c0,14.114,11.486,25.6,25.6,25.6h17.067c14.114,0,25.6-11.486,25.6-25.6V375.467h49.92c9.429,0,18.21-3.763,24.713-10.59
			C371.277,358.042,374.605,349.09,374.144,339.686z M169.506,33.323c0.435-9.114,7.919-16.256,17.041-16.256h138.914
			c9.122,0,16.614,7.142,17.05,16.256l0.845,17.877H168.653L169.506,33.323z M167.842,68.267h176.324l1.621,34.133H166.221
			L167.842,68.267z M165.41,119.467h181.188l1.621,34.133H163.789L165.41,119.467z M162.978,170.667H349.03l1.621,34.133H161.357
			L162.978,170.667z M160.546,221.867h190.925L353.092,256H158.925L160.546,221.867z M158.106,273.067h195.797l1.621,34.133h-199.04
			L158.106,273.067z M273.075,486.4c0,4.702-3.831,8.533-8.533,8.533h-17.067c-4.702,0-8.533-3.831-8.533-8.533V375.467h34.133
			V486.4z M352.418,353.101c-3.251,3.422-7.646,5.299-12.356,5.299H171.947c-4.719,0-9.105-1.877-12.356-5.299
			c-3.251-3.413-4.924-7.893-4.685-12.612l0.768-16.222h200.653l0.768,16.239C357.342,345.216,355.669,349.688,352.418,353.101z"/>
	</g>
</g>
<g>
</g>
<g>
</g>
<g>
</g>
<g>
</g>
<g>
</g>
<g>
</g>
<g>
</g>
<g>
</g>
<g>
</g>
<g>
</g>
<g>
</g>
<g>
</g>
<g>
</g>
<g>
</g>
<g>
</g>
</svg>
