<?xml version="1.0" encoding="iso-8859-1"?>
<!-- Generator: Adobe Illustrator 19.0.0, SVG Export Plug-In . SVG Version: 6.00 Build 0)  -->
<svg version="1.1" id="Layer_1" xmlns="http://www.w3.org/2000/svg" xmlns:xlink="http://www.w3.org/1999/xlink" x="0px" y="0px"
	 viewBox="0 0 511.991 511.991" style="enable-background:new 0 0 511.991 511.991;" xml:space="preserve">
<g>
	<g>
		<path d="M374.029,206.387c-2.458-9.865-7.322-17.715-13.807-22.579c3.465-12.279,2.313-27.58-3.43-38.647
			c-3.541-6.835-8.636-11.853-14.754-14.686c5.598-41.719-1.382-74.445-20.813-97.357C302.844,11.452,274.283,0,238.622,0
			c-3.78,0-7.117,2.492-8.183,6.127c-1.075,3.627,0.384,7.535,3.567,9.583c16.111,10.359,34.415,25.762,30.148,40.26
			c-6.434,21.897-57.165,37.897-76.732,37.897c-3.277,0-6.255,1.869-7.68,4.813c-1.425,2.944-1.041,6.443,0.99,9.011
			c0.717,0.905,1.434,4.207,0.316,7.569c-1.22,3.661-4.676,4.582-4.838,4.634c-8.917,1.818-16.316,7.688-21.009,16.725
			c-5.743,11.068-6.904,26.368-3.43,38.647c-6.485,4.864-11.349,12.706-13.807,22.579c-3.268,13.082-2.304,30.694,6.494,43.017
			c-3.516,14.234-0.99,28.279,7.177,39.142c8.439,11.221,21.717,17.732,37.854,18.62l58.001,207.138
			c1.024,3.669,4.361,6.212,8.166,6.229c0.017,0,0.034,0,0.051,0c3.789,0,7.134-2.5,8.192-6.144l57.967-198.741
			c16.435-0.785,29.986-7.202,38.519-18.568c8.166-10.863,10.692-24.909,7.177-39.142
			C376.325,237.082,377.298,219.469,374.029,206.387z M255.851,472.414c0,0-51.132-183.475-51.234-183.953
			c1.809-11.639,22.281-23.927,51.072-23.927c27.264,0,50.33,15.096,51.123,33.178L255.851,472.414z M351.945,241.536
			c-2.219,2.304-2.97,5.649-1.937,8.678c3.524,10.368,2.321,20.608-3.294,28.083c-5.086,6.767-13.363,10.812-23.74,11.716
			c-5.495-24.124-33.579-42.547-67.285-42.547c-33.51,0-60.664,14.362-66.91,33.988c-10.266-0.939-18.466-4.975-23.518-11.699
			c-5.615-7.475-6.818-17.715-3.294-28.083c1.033-3.021,0.282-6.374-1.937-8.678c-6.016-6.221-8.388-19.558-5.521-31.019
			c1.946-7.782,5.786-13.124,10.547-14.669c2.398-0.777,4.335-2.586,5.282-4.924c0.939-2.338,0.802-4.983-0.384-7.211
			c-4.343-8.141-4.164-21.914,0.384-30.703c2.483-4.787,5.914-7.475,10.206-8.013c1.246-0.154,2.381-0.572,3.388-1.186
			c6.238-2.56,11.008-7.765,13.295-14.626c1.169-3.507,1.613-7.245,1.382-10.82c25.472-4.096,73.31-19.789,81.911-49.058
			c3.968-13.5-0.614-27.093-13.645-40.61c14.839,3.507,29.935,10.573,41.31,23.987c17.186,20.258,22.519,50.867,15.872,90.982
			c-0.384,2.295,0.188,4.634,1.579,6.502c1.391,1.86,3.473,3.072,5.786,3.362c4.292,0.538,7.723,3.234,10.206,8.013
			c4.548,8.789,4.727,22.562,0.384,30.703c-1.186,2.227-1.323,4.872-0.384,7.211c0.947,2.338,2.884,4.139,5.282,4.924
			c4.77,1.544,8.61,6.895,10.547,14.669C360.333,221.978,357.961,235.315,351.945,241.536z"/>
	</g>
</g>
<g>
</g>
<g>
</g>
<g>
</g>
<g>
</g>
<g>
</g>
<g>
</g>
<g>
</g>
<g>
</g>
<g>
</g>
<g>
</g>
<g>
</g>
<g>
</g>
<g>
</g>
<g>
</g>
<g>
</g>
</svg>
