<?xml version="1.0" encoding="iso-8859-1"?>
<!-- Generator: Adobe Illustrator 19.0.0, SVG Export Plug-In . SVG Version: 6.00 Build 0)  -->
<svg version="1.1" id="Layer_1" xmlns="http://www.w3.org/2000/svg" xmlns:xlink="http://www.w3.org/1999/xlink" x="0px" y="0px"
	 viewBox="0 0 511.991 511.991" style="enable-background:new 0 0 511.991 511.991;" xml:space="preserve">
<g>
	<g>
		<path d="M391.634,380.917L408.548,8.909c0.179-3.9-2.313-7.424-6.042-8.551c-3.721-1.109-7.757,0.418-9.779,3.746L198.419,325.134
			c-52.942,9.378-98.22,79.814-95.404,130.648c1.98,35.721,26.258,56.21,66.612,56.21h162.136c34.595,0,59.845-14.959,71.092-42.121
			C415.605,439.039,407.319,399.733,391.634,380.917z M389.979,41.592l-15.062,331.227l-158.083-45.168L389.979,41.592z
			 M387.077,463.333c-8.687,20.958-27.299,31.591-55.323,31.591H169.619c-31.42,0-48.095-13.491-49.571-40.082
			c-2.372-42.778,38.802-107.027,83.039-113.367l175.226,50.066C389.347,404.452,397.915,437.17,387.077,463.333z"/>
	</g>
</g>
<g>
	<g>
		<path d="M267.745,383.989c-28.459,0-29.227,25.899-29.731,43.026c-0.623,21.009-2.185,29.961-15.07,31.582
			c-12.877-1.621-14.439-10.573-15.07-31.582c-0.512-17.135-1.271-43.026-29.731-43.026c-4.711,0-8.534,3.823-8.534,8.534
			s3.823,8.533,8.534,8.533c10.001,0,12.015,4.207,12.672,26.471c0.538,18.006,1.34,45.21,31.292,48.163l0.836,0.085l0.836-0.085
			c29.944-2.953,30.755-30.157,31.292-48.163c0.666-22.264,2.671-26.471,12.672-26.471c4.71,0,8.533-3.823,8.533-8.533
			S272.464,383.989,267.745,383.989z"/>
	</g>
</g>
<g>
</g>
<g>
</g>
<g>
</g>
<g>
</g>
<g>
</g>
<g>
</g>
<g>
</g>
<g>
</g>
<g>
</g>
<g>
</g>
<g>
</g>
<g>
</g>
<g>
</g>
<g>
</g>
<g>
</g>
</svg>
