<?xml version="1.0" encoding="iso-8859-1"?>
<!-- Generator: Adobe Illustrator 19.0.0, SVG Export Plug-In . SVG Version: 6.00 Build 0)  -->
<svg version="1.1" id="Layer_1" xmlns="http://www.w3.org/2000/svg" xmlns:xlink="http://www.w3.org/1999/xlink" x="0px" y="0px"
	 viewBox="0 0 512 512" style="enable-background:new 0 0 512 512;" xml:space="preserve">
<g>
	<g>
		<path d="M358.4,0H247.467c-3.362,0-6.4,1.971-7.782,5.035c-5.043,11.213-7.134,12.032-17.818,12.032
			c-3.055,0-5.879,1.638-7.407,4.284c-1.519,2.654-1.502,5.922,0.043,8.559c3.669,6.272,4.352,13.85,1.911,21.316
			c-2.594,7.945-8.491,14.916-15.019,17.749c-3.644,1.587-5.709,5.478-4.983,9.387c2.697,14.498,0.418,26.24-6.776,34.901
			C181.973,122.487,168.499,128,153.6,128c-4.71,0-8.533,3.823-8.533,8.533v238.933c0,4.71,3.823,8.533,8.533,8.533h68.267v103.62
			c0,13.44,11.486,24.38,25.6,24.38h17.067c14.114,0,25.6-10.94,25.6-24.38V384H358.4c4.71,0,8.533-3.823,8.533-8.533V8.533
			C366.933,3.823,363.11,0,358.4,0z M273.067,487.62c0,3.959-3.908,7.313-8.533,7.313h-17.067c-4.625,0-8.533-3.354-8.533-7.313V384
			h34.133V487.62z M349.867,366.933H162.133V196.267h187.733V366.933z M349.867,179.2H162.133v-34.594
			c16.674-1.835,31.172-9.054,40.627-20.429c6.656-8.013,13.688-21.734,11.349-42.786c8.354-5.581,15.181-14.626,18.526-24.866
			c2.586-7.91,2.978-15.966,1.246-23.526c8.525-1.963,13.969-6.707,18.91-15.932h97.075V179.2z"/>
	</g>
</g>
<g>
	<g>
		<path d="M230.4,128c-4.71,0-8.533,3.823-8.533,8.533v8.533c0,4.71,3.823,8.533,8.533,8.533c4.71,0,8.533-3.823,8.533-8.533v-8.533
			C238.933,131.823,235.11,128,230.4,128z"/>
	</g>
</g>
<g>
	<g>
		<path d="M264.533,59.733H256c-4.71,0-8.533,3.823-8.533,8.533S251.29,76.8,256,76.8h8.533c4.71,0,8.533-3.823,8.533-8.533
			S269.244,59.733,264.533,59.733z"/>
	</g>
</g>
<g>
	<g>
		<path d="M279.1,104.9l-8.533-8.533c-3.337-3.337-8.73-3.337-12.066,0s-3.337,8.73,0,12.066l8.533,8.533
			c1.664,1.664,3.849,2.5,6.033,2.5s4.369-0.836,6.033-2.5C282.436,113.63,282.436,108.237,279.1,104.9z"/>
	</g>
</g>
<g>
	<g>
		<path d="M321.766,139.034l-8.533-8.533c-3.337-3.337-8.73-3.337-12.066,0c-3.337,3.336-3.337,8.73,0,12.066l8.533,8.533
			c1.664,1.664,3.849,2.5,6.033,2.5c2.185,0,4.369-0.836,6.033-2.5C325.103,147.763,325.103,142.37,321.766,139.034z"/>
	</g>
</g>
<g>
	<g>
		<path d="M321.766,36.634c-3.337-3.337-8.73-3.337-12.066,0l-8.533,8.533c-3.337,3.337-3.337,8.73,0,12.066
			c1.664,1.664,3.849,2.5,6.033,2.5c2.185,0,4.369-0.836,6.033-2.5l8.533-8.533C325.103,45.363,325.103,39.97,321.766,36.634z"/>
	</g>
</g>
<g>
	<g>
		<path d="M315.733,76.8H307.2c-4.71,0-8.533,3.823-8.533,8.533c0,4.71,3.823,8.533,8.533,8.533h8.533
			c4.71,0,8.533-3.823,8.533-8.533C324.267,80.623,320.444,76.8,315.733,76.8z"/>
	</g>
</g>
<g>
</g>
<g>
</g>
<g>
</g>
<g>
</g>
<g>
</g>
<g>
</g>
<g>
</g>
<g>
</g>
<g>
</g>
<g>
</g>
<g>
</g>
<g>
</g>
<g>
</g>
<g>
</g>
<g>
</g>
</svg>
