<?xml version="1.0" encoding="iso-8859-1"?>
<!-- Generator: Adobe Illustrator 19.0.0, SVG Export Plug-In . SVG Version: 6.00 Build 0)  -->
<svg version="1.1" id="Layer_1" xmlns="http://www.w3.org/2000/svg" xmlns:xlink="http://www.w3.org/1999/xlink" x="0px" y="0px"
	 viewBox="0 0 511.997 511.997" style="enable-background:new 0 0 511.997 511.997;" xml:space="preserve">
<g>
	<g>
		<path d="M436.564,118.361L407.32,24.265l6.869-11.289c2.449-4.028,1.178-9.276-2.859-11.725c-4.036-2.466-9.276-1.169-11.725,2.85
			l-6.878,11.289l-97.022,17.246c-3.49,0.614-6.229,3.328-6.895,6.81c-0.666,3.482,0.896,7.006,3.925,8.866l58.205,35.711
			l-15.035,24.704c-9.344-4.053-19.635-6.332-30.455-6.332c-22.024,0-42.743,9.668-57.172,25.779l-11.443-46.147
			c-3.345-13.943-14.984-24.832-31.129-29.132c-18.534-4.941-38.305,0.119-50.346,12.885c-8.772,9.301-17.066,25.984-11.289,54.408
			c-28.142-5.785-44.697,1.988-53.938,10.308c-12.476,11.23-17.749,29.525-13.781,47.752c3.729,17.143,14.566,30.071,28.979,34.585
			c0.375,0.119,0.759,0.213,1.152,0.273l66.533,11.093c-7.953,7.202-12.621,15.411-12.621,23.261
			c0,40.985,27.571,76.765,68.359,95.973c0.759,31.249,18.142,57.872,42.572,69.042v33.049
			c-26.001,3.738-51.199,13.824-51.199,32.341c0,22.408,38.63,34.133,76.799,34.133s76.799-11.725,76.799-34.133
			c0-18.517-25.198-28.603-51.199-32.341v-33.049c24.431-11.17,41.813-37.794,42.572-69.042
			c40.789-19.208,68.359-54.979,68.359-95.973c0-33.442-21.521-61.874-51.412-72.396c-1.271-23.722-13.312-44.577-31.351-57.795
			l14.805-24.328l58.179,35.694c1.237,0.759,2.679,1.084,4.147,1.084c0.836,0,1.672-0.111,2.475-0.307
			c2.21-0.538,4.25-2.176,5.427-4.122C436.973,123.208,437.28,120.682,436.564,118.361z M279.869,196.269
			c32.93,0,59.732,26.794,59.732,59.732c0,7.757-4.471,23.227-4.565,23.645c-11.682,1.246-24.431,1.954-38.101,1.954
			c-29.849,0-55.176-3.413-74.802-8.371c0.017-0.759-1.997-12.177-1.997-17.229c0-9.992,2.492-19.396,6.844-27.673
			c0.367-0.503,0.64-1.041,0.896-1.63C238.141,208.557,257.58,196.269,279.869,196.269z M109.93,196.38
			c-8.115-2.79-14.558-11.076-16.896-21.76c-2.091-9.6-0.947-22.903,8.525-31.436c10.47-9.412,28.893-10.393,51.924-2.79
			c3.029,0.998,6.426,0.213,8.712-2.074c2.287-2.278,3.081-5.649,2.065-8.712c-7.637-23.099-6.374-41.608,3.533-52.112
			c7.791-8.269,20.949-11.452,33.544-8.107c9.992,2.662,17.066,8.875,18.944,16.682l25.13,101.391
			c-12.1,6.11-22.374,15.274-29.764,26.547L109.93,196.38z M177.47,247.468c0-4.096,6.306-12.518,20.062-19.183l10.172,1.698
			c-2.944,8.141-4.634,16.879-4.634,26.018c0,3.925,0.401,7.816,0.99,11.682C187.002,261.283,177.47,253.74,177.47,247.468z
			 M356.667,477.864c0,4.958-20.932,17.066-59.732,17.066s-59.732-12.109-59.732-17.066c0-3.081,10.428-11.281,34.406-15.095
			c1.348,8.84,11.52,15.095,25.327,15.095s23.978-6.255,25.327-15.095C346.24,466.583,356.667,474.784,356.667,477.864z
			 M288.402,459.066v-41.599c2.799,0.393,5.64,0.666,8.533,0.666s5.734-0.273,8.533-0.666v41.599
			c-1.357,0.742-4.309,1.732-8.533,1.732S289.759,459.817,288.402,459.066z M296.935,401.066c-25.574,0-46.77-22.016-50.542-50.636
			c15.65,5.094,32.682,7.97,50.542,7.97s34.892-2.876,50.542-7.97C343.697,379.05,322.509,401.066,296.935,401.066z
			 M296.935,341.333c-52.582,0-97.244-26.862-113.167-64.007c25.856,14.071,69.631,21.341,113.167,21.341
			c43.536,0,87.303-7.279,113.167-21.341C394.171,314.471,349.516,341.333,296.935,341.333z M416.4,247.468
			c0,9.83-23.313,22.784-62.676,29.55c1.937-6.801,2.944-13.832,2.944-21.017c0-24.516-11.597-46.335-29.542-60.406
			c8.943-5.128,18.986-7.859,29.542-7.859C389.597,187.736,416.4,214.53,416.4,247.468z M364.578,171.079
			c-2.603-0.265-5.239-0.41-7.91-0.41c-16.452,0-32.554,5.401-45.712,15.163c-9.515-4.232-20.019-6.63-31.086-6.63
			c-6.332,0-12.458,0.853-18.346,2.313l-7.936-32.017c0.034-0.06,0.102-0.094,0.137-0.154
			c10.658-18.423,30.489-29.866,51.745-29.866c7.569,0,14.779,1.468,21.452,4.053l-11.614,19.072
			c-2.449,4.028-1.178,9.276,2.859,11.725c1.382,0.845,2.918,1.246,4.429,1.246c2.884,0,5.692-1.459,7.296-4.096l11.912-19.567
			C353.962,141.264,362.402,155.165,364.578,171.079z M320.819,45.513l71.295-12.68l21.657,69.699L320.819,45.513z"/>
	</g>
</g>
<g>
</g>
<g>
</g>
<g>
</g>
<g>
</g>
<g>
</g>
<g>
</g>
<g>
</g>
<g>
</g>
<g>
</g>
<g>
</g>
<g>
</g>
<g>
</g>
<g>
</g>
<g>
</g>
<g>
</g>
</svg>
