<?xml version="1.0" encoding="iso-8859-1"?>
<!-- Generator: Adobe Illustrator 19.0.0, SVG Export Plug-In . SVG Version: 6.00 Build 0)  -->
<svg version="1.1" id="Layer_1" xmlns="http://www.w3.org/2000/svg" xmlns:xlink="http://www.w3.org/1999/xlink" x="0px" y="0px"
	 viewBox="0 0 511.976 511.976" style="enable-background:new 0 0 511.976 511.976;" xml:space="preserve">
<g>
	<g>
		<path d="M328.903,340.82l20.234-8.667c1.092-0.469,2.081-1.16,2.892-2.03c30.718-33.081,36.365-89.374,17.291-172.103
			c-1.177-5.093-2.448-10.126-3.805-15.09c-0.444-1.629-1.356-3.088-2.636-4.188c-22.35-19.415-52.607-74.608-51.226-100.37
			c0.128-2.295-0.691-4.547-2.244-6.236C288.485,9.419,265.325-1.645,242.736,0.198c-0.793,0.06-1.578,0.23-2.312,0.512
			l-65.258,25.037l0.009,0.051c-20.831,7.166-35.376,30.505-40.98,66.521c-5.494,35.265-2.064,79.129,9.639,123.521
			c11.704,44.393,30.36,84.239,52.531,112.21c19.995,25.233,41.194,38.566,60.788,38.566c3.625,0,7.2-0.452,10.689-1.382
			c3.045-0.802,5.937-2.005,8.718-3.463l30.932,127.028c3.361,13.785,13.248,23.177,23.578,23.177c1.339,0,2.687-0.162,4.026-0.486
			l12.548-3.054c6.176-1.501,11.107-6.372,13.529-13.359c2.005-5.784,2.201-12.702,0.546-19.484L328.903,340.82z M352.686,161.851
			c17.453,75.648,13.529,126.499-11.985,155.357l-39.65,16.993c4.82-10.083,8.42-22.341,10.638-36.562
			c5.417-34.821,2.116-78.028-9.239-121.841l48.709-20.098C351.67,157.747,352.208,159.786,352.686,161.851z M315.638,103.383
			c7.959,14.391,17.163,27.792,25.882,37.841l-48.47,19.995c-9.349-5.98-18.161-16.046-25.634-27.997l11.798-11.789l11.559,5.784
			c3.856,1.919,8.53,0.682,10.91-2.9L315.638,103.383z M306.834,85.844l-15.159,22.742l-10.322-5.161
			c-3.293-1.629-7.259-0.99-9.844,1.604l-12.608,12.608c-7.984-16.788-13.128-34.915-13.768-49.468
			c0.196-0.051,50.91-14.468,50.91-14.468C298.014,63.75,301.852,74.788,306.834,85.844z M245.235,17.114
			c17.999-0.93,33.84,9.426,45.468,20.371c0,0-49.835,14.306-49.955,14.348c-9.418-10.092-19.049-17.581-28.577-22.316
			L245.235,17.114z M263.491,348.745c-15.218,3.984-34.821-7.396-53.759-31.29c-20.738-26.172-38.285-63.799-49.409-105.966
			c-11.124-42.166-14.417-83.556-9.281-116.552c4.692-30.13,16.114-49.716,31.341-53.734c2.03-0.537,4.137-0.802,6.313-0.802
			c11.772,0,25.412,7.805,39.274,22.589c-0.904,36.11,24.363,93.341,57.018,113.404l0.563,2.056
			c11.124,42.166,14.417,83.556,9.281,116.552C290.14,325.141,278.718,344.727,263.491,348.745z M343.609,491.861l-12.54,3.054
			c-0.955-0.102-5.229-2.9-6.995-10.151l-31.281-128.469l20.209-8.658l32.143,132.001
			C346.91,486.879,344.556,491.469,343.609,491.861z"/>
	</g>
</g>
<g>
</g>
<g>
</g>
<g>
</g>
<g>
</g>
<g>
</g>
<g>
</g>
<g>
</g>
<g>
</g>
<g>
</g>
<g>
</g>
<g>
</g>
<g>
</g>
<g>
</g>
<g>
</g>
<g>
</g>
</svg>
