<?xml version="1.0" encoding="iso-8859-1"?>
<!-- Generator: Adobe Illustrator 19.0.0, SVG Export Plug-In . SVG Version: 6.00 Build 0)  -->
<svg version="1.1" id="Layer_1" xmlns="http://www.w3.org/2000/svg" xmlns:xlink="http://www.w3.org/1999/xlink" x="0px" y="0px"
	 viewBox="0 0 511.983 511.983" style="enable-background:new 0 0 511.983 511.983;" xml:space="preserve">
<g>
	<g>
		<path d="M408.943,369.486c-2.125-6.246-9.455-10.906-21.931-13.875l43.682-72.021c5.171-8.055,6.869-17.963,4.642-27.187
			c-2.202-9.122-7.851-16.725-15.915-21.419l-40.533-23.407l57.011-98.748c7.049-12.228,2.85-27.913-9.378-34.961l-14.771-8.533
			c-12.237-7.057-27.913-2.85-34.978,9.37l-57.011,98.748l-45.961-26.539c-8.141-4.642-17.604-5.709-26.667-3.021
			c-9.199,2.739-16.683,8.969-20.975,17.34L123.511,352.197c-12.877,0.017-52.779,1.553-55.134,19.627
			C8.064,381.364,0,393.627,0,403.397c0,6.511,4.446,11.145,8.747,14.174c-0.145,0.956-0.213,1.92-0.213,2.893
			c0,14.353,14.993,25.6,34.133,25.6c9.643,0,18.842-2.995,25.216-8.201c1.946-1.596,4.284-2.287,6.579-1.937
			c4.864,0.717,9.933,1.425,15.181,2.057c64.486,8.098,155.913,10.24,239.659,5.598c12.979-0.657,25.37-1.05,37.197-1.425
			c26.214-0.836,48.862-1.553,69.956-4.71c0.922-0.136,1.869-0.358,2.79-0.614c6.536,6.323,17.476,9.242,25.805,9.242
			c16.358,0,29.688-11.332,29.867-25.327c8.96-3.558,17.067-8.772,17.067-17.34C512,395.504,512,380.989,408.943,369.486z
			 M391.552,87.229c2.338-4.07,7.578-5.478,11.657-3.123l14.771,8.533c4.079,2.347,5.478,7.578,3.123,11.657l-57.011,98.748
			l-29.559-17.067L391.552,87.229z M482.714,406.956c-2.261,0.717-4.122,2.347-5.146,4.489c-1.024,2.142-1.084,4.617-0.196,6.818
			c0.333,0.836,0.495,1.553,0.495,2.202c0,4.036-5.257,8.533-12.8,8.533c-6.656,0-12.945-2.901-14.353-4.907
			c-2.739-3.9-6.366-4.907-9.489-4.907c-2.466,0-4.608,0.631-5.734,0.956c-0.521,0.154-1.033,0.333-1.562,0.41
			c-20.105,3.012-42.291,3.712-67.968,4.531c-11.93,0.384-24.422,0.776-37.555,1.442c-82.876,4.591-173.141,2.475-236.681-5.495
			c-5.129-0.614-10.044-1.297-14.746-1.997c-6.997-1.067-14.259,0.981-19.9,5.606c-3.337,2.739-8.721,4.361-14.413,4.361
			c-10.257,0-17.067-5.137-17.067-8.533c0-0.64,0.239-1.314,0.7-2.005c1.374-2.057,1.783-4.608,1.126-6.98
			c-0.649-2.381-2.304-4.369-4.523-5.436c-2.219-1.067-3.669-1.963-4.608-2.637c4.113-2.91,18.295-10.044,63.428-16.29
			c3.499-0.486,6.34-3.072,7.134-6.511c0.521-2.202,0.128-4.454-0.981-6.315c5.794-2.33,18.133-5.009,35.849-5.009
			c1.468,0.017,2.927,0,4.318,0.068c3.294,0.23,6.366-1.536,7.945-4.412l105.25-191.718c2.261-4.403,6.076-7.586,10.769-8.986
			c4.54-1.357,9.276-0.819,13.295,1.468l145.562,84.036c3.985,2.313,6.784,6.101,7.885,10.658c1.152,4.787,0.299,9.745-2.534,14.148
			l-43.793,72.201c-2.842,4.693-3.268,10.283-1.152,15.351c2.108,5.043,6.545,8.823,11.878,10.104
			c3.712,0.887,6.263,1.826,7.902,2.586c-0.435,1.596-0.401,3.311,0.145,4.949c1.067,3.174,3.883,5.436,7.211,5.777
			c57.958,6.033,84.582,13.346,93.696,17.826C490.146,404.31,487.185,405.548,482.714,406.956z"/>
	</g>
</g>
<g>
	<g>
		<path d="M341.333,258.331c-4.71,0-8.533,3.823-8.533,8.533v34.133c0,4.702-3.831,8.533-8.533,8.533H307.2
			c-4.702,0-8.533-3.831-8.533-8.533v-59.733c0-4.71-3.823-8.533-8.533-8.533s-8.533,3.823-8.533,8.533v110.933
			c0,4.702-3.831,8.533-8.533,8.533H256c-4.702,0-8.533-3.831-8.533-8.533v-76.8c0-4.71-3.823-8.533-8.533-8.533
			s-8.533,3.823-8.533,8.533v76.8c0,14.114,11.486,25.6,25.6,25.6h17.067c14.114,0,25.6-11.486,25.6-25.6v-27.17
			c2.679,0.956,5.53,1.57,8.533,1.57h17.067c14.114,0,25.6-11.486,25.6-25.6v-34.133
			C349.867,262.154,346.044,258.331,341.333,258.331z"/>
	</g>
</g>
<g>
</g>
<g>
</g>
<g>
</g>
<g>
</g>
<g>
</g>
<g>
</g>
<g>
</g>
<g>
</g>
<g>
</g>
<g>
</g>
<g>
</g>
<g>
</g>
<g>
</g>
<g>
</g>
<g>
</g>
</svg>
