<?xml version="1.0" encoding="iso-8859-1"?>
<!-- Generator: Adobe Illustrator 19.0.0, SVG Export Plug-In . SVG Version: 6.00 Build 0)  -->
<svg version="1.1" id="Layer_1" xmlns="http://www.w3.org/2000/svg" xmlns:xlink="http://www.w3.org/1999/xlink" x="0px" y="0px"
	 viewBox="0 0 512 512" style="enable-background:new 0 0 512 512;" xml:space="preserve">
<g>
	<g>
		<path d="M349.867,0H162.133c-14.114,0-25.6,11.486-25.6,25.6v332.8c0,14.114,11.486,25.6,25.6,25.6h0.683
			c2.816,16.845,13.926,25.6,24.917,25.6h8.533v8.533c0,6.921,2.705,13.363,7.458,17.988c4.77,4.898,11.281,7.603,18.142,7.612
			V486.4c0,14.114,11.486,25.6,25.6,25.6h17.067c14.114,0,25.6-11.486,25.6-25.6V384h59.733c14.114,0,25.6-11.486,25.6-25.6V25.6
			C375.467,11.486,363.981,0,349.867,0z M273.067,486.4c0,4.702-3.831,8.533-8.533,8.533h-17.067c-4.702,0-8.533-3.831-8.533-8.533
			v-49.596c5.197-4.898,8.533-11.887,8.533-19.627V384h25.6V486.4z M358.4,358.4c0,4.702-3.831,8.533-8.533,8.533H238.933
			c-4.71,0-8.533,3.823-8.533,8.533v41.711c0,4.855-3.473,9.097-7.74,9.455c-2.569,0.265-4.975-0.64-6.869-2.577
			c-1.587-1.545-2.458-3.644-2.458-5.922v-17.067c0-4.71-3.823-8.533-8.533-8.533h-17.067c-4.139,0-8.533-5.982-8.533-17.067
			c0-4.71-3.823-8.533-8.533-8.533h-8.533c-4.702,0-8.533-3.831-8.533-8.533V256h204.8V358.4z M358.4,238.933H153.6v-102.4h204.8
			V238.933z M358.4,119.467H153.6V25.6c0-4.702,3.831-8.533,8.533-8.533h187.733c4.702,0,8.533,3.831,8.533,8.533V119.467z"/>
	</g>
</g>
<g>
</g>
<g>
</g>
<g>
</g>
<g>
</g>
<g>
</g>
<g>
</g>
<g>
</g>
<g>
</g>
<g>
</g>
<g>
</g>
<g>
</g>
<g>
</g>
<g>
</g>
<g>
</g>
<g>
</g>
</svg>
