<?xml version="1.0" encoding="iso-8859-1"?>
<!-- Generator: Adobe Illustrator 19.0.0, SVG Export Plug-In . SVG Version: 6.00 Build 0)  -->
<svg version="1.1" id="Layer_1" xmlns="http://www.w3.org/2000/svg" xmlns:xlink="http://www.w3.org/1999/xlink" x="0px" y="0px"
	 viewBox="0 0 512 512" style="enable-background:new 0 0 512 512;" xml:space="preserve">
<g>
	<g>
		<g>
			<path d="M185.35,36.7c-3.3-3.3-8.7-3.3-12.1,0c-3.3,3.3-3.3,8.7,0,12.1l8.5,8.5c1.7,1.7,3.8,2.5,6,2.5s4.4-0.8,6-2.5
				c3.4-3.4,3.4-8.8,0.1-12.1L185.35,36.7z"/>
			<path d="M181.75,79.3l-8.5,8.5c-3.3,3.3-3.3,8.7,0,12.1c1.7,1.7,3.8,2.5,6,2.5s4.4-0.8,6-2.5l8.5-8.5c3.4-3.4,3.4-8.8,0.1-12.1
				C190.55,76,185.15,76,181.75,79.3z"/>
			<path d="M349.95,0h-187.8c-14.1,0-25.6,11.5-25.6,25.6v332.8c0,14.1,11.5,25.6,25.6,25.6h59.7v102.4c0,14.1,11.5,25.6,25.6,25.6
				h17.1c14.1,0,25.6-11.5,25.6-25.6V384h59.7c14.1,0,25.6-11.5,25.6-25.6V25.6C375.55,11.5,364.05,0,349.95,0z M273.15,486.4
				c0,4.7-3.8,8.5-8.5,8.5h-17.1c-4.7,0-8.5-3.8-8.5-8.5V384h34.1V486.4z M358.45,358.4c0,4.7-3.8,8.5-8.5,8.5h-187.8
				c-4.7,0-8.5-3.8-8.5-8.5V256h204.8V358.4z M358.45,238.9h-204.8V136.5h204.8V238.9z M153.65,119.5V25.6c0-4.7,3.8-8.5,8.5-8.5
				h187.7c4.7,0,8.5,3.8,8.5,8.5l0.1,93.9H153.65z"/>
			<path d="M326.75,36.6l-8.5,8.5c-3.3,3.3-3.3,8.7,0,12.1c1.7,1.7,3.8,2.5,6,2.5s4.4-0.8,6-2.5l8.5-8.5c3.5-3.3,3.5-8.7,0.1-12.1
				C335.55,33.3,330.15,33.3,326.75,36.6z"/>
			<path d="M330.35,79.3c-3.3-3.3-8.7-3.3-12.1,0c-3.3,3.3-3.3,8.7,0,12.1l8.5,8.5c1.7,1.7,3.8,2.5,6,2.5s4.4-0.8,6-2.5
				c3.5-3.3,3.5-8.7,0.1-12.1L330.35,79.3z"/>
			<path d="M230.45,42.6c0-4.6-3.8-8.5-8.5-8.5s-8.5,3.8-8.5,8.5v8.5c0,4.7,3.8,8.5,8.5,8.5s8.5-3.8,8.5-8.5V42.6z"/>
			<path d="M279.15,70.8c-3.3-3.3-8.7-3.3-12.1,0c-3.3,3.3-3.3,8.7,0,12.1l8.5,8.5c1.7,1.7,3.8,2.5,6,2.5s4.4-0.8,6-2.5
				c3.5-3.4,3.5-8.8,0.1-12.1L279.15,70.8z"/>
			<path d="M273.15,51.1c4.7,0,8.5-3.8,8.5-8.5c0-4.6-3.8-8.5-8.5-8.5h-8.5c-4.7,0-8.5,3.8-8.5,8.5c0,4.7,3.8,8.5,8.5,8.5H273.15z"
				/>
			<path d="M238.95,76.8c-4.7,0-8.5,3.8-8.5,8.5v8.5c0,4.7,3.8,8.5,8.5,8.5s8.5-3.8,8.5-8.5v-8.5
				C247.55,80.6,243.65,76.8,238.95,76.8z"/>
		</g>
	</g>
</g>
<g>
</g>
<g>
</g>
<g>
</g>
<g>
</g>
<g>
</g>
<g>
</g>
<g>
</g>
<g>
</g>
<g>
</g>
<g>
</g>
<g>
</g>
<g>
</g>
<g>
</g>
<g>
</g>
<g>
</g>
</svg>
