<?xml version="1.0" encoding="iso-8859-1"?>
<!-- Generator: Adobe Illustrator 19.0.0, SVG Export Plug-In . SVG Version: 6.00 Build 0)  -->
<svg version="1.1" id="Layer_1" xmlns="http://www.w3.org/2000/svg" xmlns:xlink="http://www.w3.org/1999/xlink" x="0px" y="0px"
	 viewBox="0 0 512 512" style="enable-background:new 0 0 512 512;" xml:space="preserve">
<g>
	<g>
		<path d="M391.607,344.269l-50.5-260.864C325.099,14.473,285.99,0,255.996,0c-29.995,0-69.094,14.473-85.171,83.712
			l-50.432,260.557c-0.606,3.14-1.015,6.357-0.768,9.54c2.014,26.402,24.132,47.258,51.038,47.258h17.067v93.867
			c0,9.387,7.68,17.067,17.067,17.067h17.067c9.387,0,17.067-7.68,17.067-17.067v-93.867h34.133l0.085,93.867
			c0,8.533,8.533,17.067,17.067,17.067h17.067c8.533,0,17.067-8.533,17.067-17.067l-0.085-93.867h17.067
			c26.906,0,49.024-20.855,51.046-47.258C392.623,350.618,392.213,347.409,391.607,344.269z M221.862,486.4
			c0,4.71-3.814,8.533-8.533,8.533c-4.71,0-8.533-3.823-8.533-8.533v-85.333h17.067V486.4z M230.396,384h-59.733
			c-14.711,0-27.273-9.353-32.06-22.426c-1.954-5.333-2.022-11.17-0.939-16.742l49.843-257.57
			c8.021-34.509,22.17-56.004,42.889-65.109V384z M264.529,384h-17.067V17.613c2.773-0.324,5.589-0.546,8.533-0.546
			c2.944,0,5.769,0.222,8.533,0.546V384z M298.748,494.933c-4.71,0-8.533-3.823-8.533-8.533l-0.085-85.333h17.067l0.085,85.333
			C307.281,491.11,303.458,494.933,298.748,494.933z M373.397,361.583C368.602,374.647,356.041,384,341.329,384h-59.733V22.144
			c20.719,9.088,34.859,30.524,42.829,64.811l49.911,257.877C375.411,350.404,375.351,356.25,373.397,361.583z"/>
	</g>
</g>
<g>
</g>
<g>
</g>
<g>
</g>
<g>
</g>
<g>
</g>
<g>
</g>
<g>
</g>
<g>
</g>
<g>
</g>
<g>
</g>
<g>
</g>
<g>
</g>
<g>
</g>
<g>
</g>
<g>
</g>
</svg>
