<?xml version="1.0" encoding="iso-8859-1"?>
<!-- Generator: Adobe Illustrator 19.0.0, SVG Export Plug-In . SVG Version: 6.00 Build 0)  -->
<svg version="1.1" id="Layer_1" xmlns="http://www.w3.org/2000/svg" xmlns:xlink="http://www.w3.org/1999/xlink" x="0px" y="0px"
	 viewBox="0 0 512 512" style="enable-background:new 0 0 512 512;" xml:space="preserve">
<g>
	<g>
		<path d="M351.587,145.553c-2.825-14.174-11.307-33.101-35.166-46.652c9.19-18.031,9.429-36.983,0.486-54.204
			C302.145,16.265,267.952,0.452,243.274,0c-3.14,0.111-6.374,1.818-7.825,4.804c-1.451,2.995-1.041,6.554,1.067,9.131
			c10.778,13.184,15.164,24.243,13.039,32.862c-3.849,15.599-29.636,26.564-52.395,36.241l-6.921,2.953
			c-21.513,8.738-22.391,23.245-21,31.121c7.407,41.958,111.548,94.507,160.512,96.222c0.094,0,0.196,0,0.299,0
			c2.338,0,4.591-0.964,6.204-2.671C346.049,200.286,356.835,171.887,351.587,145.553z M326.064,195.985
			c-48.606-4.412-135.185-54.4-140.032-81.86c-0.393-2.227-1.314-7.492,10.684-12.348c0.06-0.026,0.119-0.051,0.179-0.077
			l6.938-2.97c27.725-11.793,56.397-23.987,62.285-47.855c2.33-9.446,0.785-19.473-4.736-30.327
			c15.923,5.385,32.435,16.717,40.371,32c7.518,14.481,6.042,29.636-4.386,45.065c-1.417,2.091-1.826,4.693-1.135,7.117
			s2.423,4.42,4.719,5.453c19.063,8.525,30.464,21.538,33.886,38.69C338.745,168.508,331.398,187.742,326.064,195.985z"/>
	</g>
</g>
<g>
	<g>
		<path d="M351.656,248.329c-5.854-12.339-22.025-17.903-31.095-17.903c-0.017,0-0.034,0-0.051,0
			c-39.168-2.705-110.447-36.258-129.212-56.951c-1.732-1.92-4.198-2.927-6.81-2.79c-2.577,0.154-4.949,1.451-6.443,3.558
			c-39.902,55.723-8.73,94.737-0.529,103.416l76.169,228.514c1.161,3.482,4.42,5.828,8.098,5.828c3.678,0,6.938-2.347,8.098-5.837
			l76.322-228.975C355.957,264.525,354.6,254.541,351.656,248.329z M261.783,476.484L196.818,281.6h129.92L261.783,476.484z
			 M334.239,264.533H188.507c-6.673-7.262-25.446-32.887-1.937-72.226c28.092,23.023,92.8,52.378,133.35,55.159
			c4.89,0,14.097,3.507,16.307,8.166C337.465,258.236,336.151,261.555,334.239,264.533z"/>
	</g>
</g>
<g>
</g>
<g>
</g>
<g>
</g>
<g>
</g>
<g>
</g>
<g>
</g>
<g>
</g>
<g>
</g>
<g>
</g>
<g>
</g>
<g>
</g>
<g>
</g>
<g>
</g>
<g>
</g>
<g>
</g>
</svg>
