<?xml version="1.0" encoding="iso-8859-1"?>
<!-- Generator: Adobe Illustrator 19.0.0, SVG Export Plug-In . SVG Version: 6.00 Build 0)  -->
<svg version="1.1" id="Layer_1" xmlns="http://www.w3.org/2000/svg" xmlns:xlink="http://www.w3.org/1999/xlink" x="0px" y="0px"
	 viewBox="0 0 512 512" style="enable-background:new 0 0 512 512;" xml:space="preserve">
<g>
	<g>
		<path d="M332.8,145.877v-9.344c0-26.615-13.619-50.099-34.253-63.889c-0.23-6.852-1.033-13.722-2.355-20.386l4.966,4.966
			c1.672,1.673,3.857,2.509,6.042,2.509c2.185,0,4.369-0.836,6.033-2.5c3.337-3.337,3.337-8.73,0-12.066l-3.089-3.098
			c3.251-1.203,5.598-4.267,5.598-7.936c0-4.71-3.823-8.533-8.533-8.533h-3.268l2.355-4.719c2.108-4.215,0.401-9.344-3.814-11.452
			c-4.233-2.108-9.344-0.393-11.452,3.814l-4.924,9.839C278.682,9.318,268.331,0,256,0c-3.234,0-6.187,1.826-7.637,4.719
			L214.81,71.825c-21.376,13.653-35.618,37.53-35.618,64.717v9.335c-36.48,5.163-64.691,37.222-64.691,75.981
			c0,9.446,1.707,18.637,4.966,27.375V281.6c0,2.944,1.519,5.675,4.011,7.236l65.664,41.037l58.76,176.29
			c1.169,3.49,4.42,5.837,8.098,5.837c3.678,0,6.929-2.347,8.098-5.837l58.76-176.29l65.664-41.037
			c2.492-1.562,4.011-4.292,4.011-7.236v-32.375c3.26-8.73,4.966-17.92,4.966-27.358C397.5,183.117,369.289,151.057,332.8,145.877z
			 M260.574,18.475c8.593,5.086,17.493,23.441,20.156,45.423c-7.774-2.654-16.068-4.164-24.73-4.164
			c-5.862,0-11.554,0.725-17.041,1.971L260.574,18.475z M196.267,136.533c0-32.939,26.795-59.733,59.733-59.733
			s59.733,26.795,59.733,59.733v8.883c-26.001,2.389-48.188,18.398-59.733,41.003c-11.546-22.605-33.732-38.622-59.733-41.011
			V136.533z M131.567,221.858c0-32.939,25.992-59.733,57.95-59.733s57.95,26.795,57.95,59.733v0.009v17.067H133.965
			C132.378,233.421,131.567,227.703,131.567,221.858z M136.533,276.873V256h110.933v21.205l-51.516,36.796L136.533,276.873z
			 M256,476.484l-49.647-148.941L256,292.088l49.647,35.456L256,476.484z M375.467,276.873l-59.418,37.137l-51.516-36.796V256
			h110.933V276.873z M378.035,238.933H264.533v-17.067c0-32.939,25.993-59.733,57.95-59.733c31.949,0,57.95,26.795,57.95,59.733
			C380.433,227.712,379.631,233.429,378.035,238.933z"/>
	</g>
</g>
<g>
</g>
<g>
</g>
<g>
</g>
<g>
</g>
<g>
</g>
<g>
</g>
<g>
</g>
<g>
</g>
<g>
</g>
<g>
</g>
<g>
</g>
<g>
</g>
<g>
</g>
<g>
</g>
<g>
</g>
</svg>
