<?xml version="1.0" encoding="iso-8859-1"?>
<!-- Generator: Adobe Illustrator 19.0.0, SVG Export Plug-In . SVG Version: 6.00 Build 0)  -->
<svg version="1.1" id="Layer_1" xmlns="http://www.w3.org/2000/svg" xmlns:xlink="http://www.w3.org/1999/xlink" x="0px" y="0px"
	 viewBox="0 0 512.004 512.004" style="enable-background:new 0 0 512.004 512.004;" xml:space="preserve">
<g>
	<g>
		<path d="M505.006,456.794l-87.606-85.592l66.464-66.464c3.336-3.336,3.336-8.728,0-12.064l-19.564-19.564l2.5-2.5
			c3.336-3.336,3.336-8.728,0-12.064L228.026,19.764c-15.042-15.63-42.6-22.337-77.734-18.873
			c-40.356,3.984-91.129,22.2-106.239,45.782c-1.903,2.969-1.783,6.8,0.29,9.641c5.068,6.936,6.843,13.796,4.863,18.821
			c-1.971,5.017-7.892,8.72-16.671,10.435c-2.764,0.538-5.102,2.415-6.211,5.017c-1.109,2.585-0.862,5.571,0.666,7.952
			c6.399,9.999,8.592,18.113,6.518,24.103c-2.022,5.853-8.481,10.699-19.197,14.427c-2.252,0.776-4.07,2.466-5.017,4.641
			c-0.956,2.176-0.956,4.658,0,6.834c2.141,4.906,4.445,8.89,6.467,12.397c6.74,11.706,9.018,15.648-13.216,37.873
			c-3.31,3.31-3.336,8.66-0.068,11.996c0,0,0,0,0,0.009c0.017,0.009,0.009,0.017,0.026,0.017c0,0,0.017,0.009,0.017,0.017
			s0,0.009,0.026,0.026l255.957,255.957c1.664,1.664,3.848,2.5,6.032,2.5c2.184,0,4.368-0.836,6.032-2.5l2.5-2.491l19.564,19.564
			c1.664,1.664,3.848,2.5,6.032,2.5c2.184,0,4.368-0.836,6.032-2.5l62.428-62.428l89.696,83.647
			c4.445,4.454,10.409,6.877,16.851,6.877c0.316,0,0.631,0,0.956-0.017c6.57-0.239,12.789-2.986,17.533-7.721l12.064-12.073
			c4.744-4.744,7.482-10.964,7.721-17.525C512.19,467.86,509.75,461.538,505.006,456.794z M30.538,152.435
			c-0.555-0.973-1.126-1.954-1.681-2.961c10.759-5.332,17.729-12.448,20.784-21.245c2.995-8.651,1.996-18.437-2.935-29.196
			c8.958-3.814,15.34-9.888,18.386-17.67c3.541-9.027,2.355-19.291-3.302-29.418c9.01,2.287,18.796,6.706,21.296,15.238
			c2.415,8.233-2.363,19.675-12.184,29.154c-1.672,1.613-2.611,3.848-2.602,6.177c0.017,2.329,0.973,4.556,2.67,6.16
			c9.948,9.402,14.837,19.035,14.53,28.633c-0.486,15.349-13.967,26.722-14.069,26.816c-2.21,1.809-3.379,4.607-3.089,7.448
			c1.177,11.817-1.101,19.828-6.936,24.487c-8.72,6.953-24.589,6.22-36.755,4.027C42.304,179.165,39.65,168.253,30.538,152.435z
			 M264.534,448.748L34.309,218.515c12.73,0.802,27.174-0.717,37.703-9.095c9.735-7.738,14.308-19.581,13.625-35.254
			c5.631-5.725,16.296-18.787,16.927-36.124c0.452-12.482-4.266-24.469-14.035-35.706c10.4-12.806,14.564-27.567,10.938-39.955
			c-2.159-7.337-7.628-16.322-21.014-22.601c18.062-10.016,45.185-19.111,73.502-21.901c29.81-2.935,52.429,1.937,63.878,13.839
			l232.87,232.861l-22.328,22.328L254.509,115.031c-13.301-13.301-34.955-13.318-48.265,0c-6.424,6.425-9.965,14.999-9.965,24.137
			s3.541,17.704,9.965,24.137L378.12,335.171l-38.991,38.991L165.325,200.367c-6.424-6.424-14.991-9.965-24.128-9.965
			c-9.129,0-17.704,3.541-24.128,9.965c-6.425,6.425-9.965,14.991-9.965,24.137c0,9.138,3.541,17.704,9.965,24.128l173.795,173.795
			L264.534,448.748z M414.312,298.971l-24.137,24.128L218.309,151.232c-3.199-3.199-4.966-7.491-4.966-12.064
			c0-4.573,1.758-8.865,4.966-12.064c6.646-6.655,17.49-6.655,24.137,0L414.312,298.971z M327.065,386.218l-24.137,24.137
			L129.133,236.56c-3.208-3.199-4.966-7.491-4.966-12.064c0-4.582,1.758-8.865,4.966-12.073c6.399-6.407,17.729-6.399,24.128,0
			L327.065,386.218z M298.662,465.812L285.13,452.28l167.106-167.106l13.532,13.532L298.662,465.812z M492.157,480.129
			l-12.064,12.064c-1.681,1.681-3.848,2.662-6.1,2.739c-2.014,0.111-3.822-0.589-5.324-2.082l-89.474-83.442l26.133-26.133
			l87.682,85.66c1.28,1.28,1.954,3.097,1.877,5.102C494.802,476.281,493.838,478.448,492.157,480.129z"/>
	</g>
</g>
<g>
</g>
<g>
</g>
<g>
</g>
<g>
</g>
<g>
</g>
<g>
</g>
<g>
</g>
<g>
</g>
<g>
</g>
<g>
</g>
<g>
</g>
<g>
</g>
<g>
</g>
<g>
</g>
<g>
</g>
</svg>
