<?xml version="1.0" encoding="iso-8859-1"?>
<!-- Generator: Adobe Illustrator 19.0.0, SVG Export Plug-In . SVG Version: 6.00 Build 0)  -->
<svg version="1.1" id="Layer_1" xmlns="http://www.w3.org/2000/svg" xmlns:xlink="http://www.w3.org/1999/xlink" x="0px" y="0px"
	 viewBox="0 0 512 512" style="enable-background:new 0 0 512 512;" xml:space="preserve">
<g>
	<g>
		<path d="M384,168.158V51.2C384,22.963,361.037,0,332.8,0s-51.2,22.963-51.2,51.2v46.694c-8.038-2.705-16.512-4.028-25.6-4.028
			c-9.532,0-17.92,1.229-25.6,3.797V51.2c0-28.237-22.963-51.2-51.2-51.2C150.963,0,128,22.963,128,51.2v116.958
			c-11.324,18.057-17.067,38.98-17.067,62.242c0,60.194,47.386,110.677,110.933,124.271V487.62c0,13.44,11.486,24.38,25.6,24.38
			h17.067c14.114,0,25.6-10.94,25.6-24.38V354.671c63.548-13.594,110.933-64.077,110.933-124.271
			C401.067,207.138,395.324,186.214,384,168.158z M273.067,487.62c0,3.959-3.908,7.313-8.533,7.313h-17.067
			c-4.625,0-8.533-3.354-8.533-7.313V357.436c5.606,0.58,11.281,0.964,17.067,0.964s11.46-0.384,17.067-0.964V487.62z M256,341.333
			c-70.579,0-128-49.766-128-110.933c0-20.804,5.265-39.313,15.65-55.031c0.922-1.391,1.417-3.029,1.417-4.702V51.2
			c0-18.825,15.309-34.133,34.133-34.133c18.825,0,34.133,15.309,34.133,34.133v59.733c0,3.072,1.647,5.905,4.318,7.424
			c2.671,1.519,5.948,1.476,8.593-0.094c8.491-5.069,17.664-7.33,29.756-7.33c11.196,0,20.736,2.372,30.029,7.475
			c2.645,1.442,5.862,1.408,8.448-0.137c2.594-1.528,4.19-4.318,4.19-7.339V51.2c0-18.825,15.309-34.133,34.133-34.133
			s34.133,15.309,34.133,34.133v119.467c0,1.672,0.495,3.311,1.417,4.702C378.735,191.087,384,209.596,384,230.4
			C384,291.567,326.579,341.333,256,341.333z"/>
	</g>
</g>
<g>
</g>
<g>
</g>
<g>
</g>
<g>
</g>
<g>
</g>
<g>
</g>
<g>
</g>
<g>
</g>
<g>
</g>
<g>
</g>
<g>
</g>
<g>
</g>
<g>
</g>
<g>
</g>
<g>
</g>
</svg>
