<?xml version="1.0" encoding="iso-8859-1"?>
<!-- Generator: Adobe Illustrator 19.0.0, SVG Export Plug-In . SVG Version: 6.00 Build 0)  -->
<svg version="1.1" id="Layer_1" xmlns="http://www.w3.org/2000/svg" xmlns:xlink="http://www.w3.org/1999/xlink" x="0px" y="0px"
	 viewBox="0 0 511.99 511.99" style="enable-background:new 0 0 511.99 511.99;" xml:space="preserve">
<g>
	<g>
		<path d="M505.464,451.448c-14.574-15.402-50.054-16.87-85.15-17.057c-4.096-0.017-7.671-0.034-10.478-0.128
			c-8.064-0.247-13.542-2.253-16.281-5.956c-4.121-5.572-2.073-14.736-1.348-17.416c3.695-13.593-4.113-27.51-21.563-39.021
			l99.545-142.517c0.273-0.401,0.529-0.828,0.734-1.271c11.955-25.573,0.887-56.104-24.686-68.067l-15.462-7.227l36.145-77.283
			c2.696-5.751,3.891-11.426,3.464-16.417c-0.58-6.775-4.232-12.211-10.001-14.907l-11.596-5.427
			c-10.427-4.872-21.759,1.195-28.244,15.052l-36.154,77.291l-30.906-14.455l36.154-77.3c6.485-13.866,3.848-26.452-6.553-31.316
			l-11.588-5.418c-10.427-4.881-21.759,1.186-28.244,15.052l-36.154,77.291l-15.453-7.227
			c-25.573-11.955-56.104-0.887-68.076,24.686c-0.222,0.495-0.41,1.007-0.538,1.536l-65.84,261.969
			c-1.997,12.023-3.797,25.266-3.789,41.248c-5.222-0.017-13.516,0.009-26.64,0.034h-3.038c-12.62,0-52.989,1.451-55.353,19.626
			C8.064,446.353,0,458.615,0,468.385c0,6.511,4.446,11.144,8.746,14.173c-0.136,0.956-0.213,1.928-0.213,2.893
			c0,14.352,14.992,25.599,34.132,25.599c9.642,0,18.832-2.995,25.215-8.209c1.954-1.587,4.292-2.287,6.579-1.937
			c4.855,0.717,9.932,1.425,15.18,2.056c64.483,8.089,155.913,10.239,239.655,5.598c12.979-0.657,25.368-1.05,37.195-1.425
			c26.213-0.836,48.859-1.553,69.953-4.71c0.922-0.136,1.869-0.358,2.79-0.614c6.536,6.323,17.475,9.241,25.804,9.241
			c15.999,0,29.097-10.837,29.831-24.396c11.997-3.882,16.784-11.596,17.091-17.842C512.29,462.284,510.037,456.277,505.464,451.448
			z M436.014,61.024c2.312-4.966,4.881-6.758,5.538-6.826l11.613,5.393c0.358,0.572,0.623,3.703-1.707,8.661l-36.145,77.291
			l-15.453-7.227L436.014,61.024z M358.723,24.871c2.312-4.958,4.872-6.758,5.538-6.818l11.605,5.393
			c0.358,0.58,0.623,3.703-1.698,8.661l-36.154,77.291l-15.453-7.227L358.723,24.871z M484.123,471.619
			c-2.611,0.358-4.906,1.894-6.229,4.164c-1.323,2.278-1.527,5.026-0.538,7.466c0.324,0.836,0.486,1.553,0.486,2.202
			c0,4.036-5.256,8.533-12.799,8.533c-6.656,0-12.944-2.901-14.352-4.906c-2.739-3.9-6.366-4.906-9.489-4.906
			c-2.466,0-4.608,0.631-5.734,0.956c-0.521,0.154-1.032,0.333-1.562,0.41c-20.104,3.012-42.289,3.712-67.965,4.531
			c-11.929,0.384-24.43,0.776-37.562,1.442c-82.837,4.591-173.133,2.483-236.66-5.495c-5.137-0.614-10.043-1.297-14.753-1.997
			c-6.997-1.067-14.25,1.007-19.89,5.615c-3.336,2.722-8.721,4.352-14.412,4.352c-10.257,0-17.066-5.137-17.066-8.533
			c0-0.64,0.23-1.314,0.7-2.005c1.365-2.056,1.783-4.599,1.135-6.98s-2.312-4.369-4.522-5.435c-2.227-1.067-3.678-1.963-4.608-2.637
			c4.113-2.918,18.303-10.043,63.425-16.289c3.498-0.486,6.34-3.072,7.142-6.519c0.521-2.201,0.128-4.454-0.981-6.314
			c5.802-2.329,18.132-5.009,35.847-5.009h3.072c21.87-0.043,33.654-0.051,34.857-0.009c2.534,0.179,4.761-0.759,6.459-2.449
			c1.715-1.69,2.637-4.019,2.534-6.425c-0.879-21.093,1.894-37.724,3.242-45.984l65.49-260.458
			c8.2-16.537,28.244-23.611,45.037-15.76l154.582,72.299c16.835,7.876,24.242,27.826,16.742,44.747l-104.366,149.42
			c-1.391,2.005-1.869,4.514-1.297,6.886c0.572,2.372,2.142,4.394,4.301,5.538c14.847,7.893,23.244,17.45,21.366,24.353
			c-1.587,5.828-4.36,20.624,4.096,32.033c5.999,8.115,15.914,12.441,29.464,12.859c2.918,0.094,6.639,0.111,10.914,0.137
			c20.146,0.111,62.051,0.333,72.837,11.724c1.391,1.468,1.954,2.901,2.005,4.01C494.653,468.01,491.734,470.595,484.123,471.619z"
			/>
	</g>
</g>
<g>
	<g>
		<path d="M345.583,178.267c-28.457,0-29.225,25.897-29.729,43.023c-0.623,21.008-2.184,29.959-15.069,31.58
			c-12.876-1.621-14.438-10.572-15.069-31.58c-0.512-17.134-1.271-43.023-29.729-43.023c-4.71,0-8.533,3.823-8.533,8.533
			c0,4.71,3.823,8.533,8.533,8.533c10.001,0,12.014,4.207,12.671,26.469c0.538,18.004,1.34,45.207,31.29,48.16h1.672
			c29.942-2.952,30.753-30.155,31.29-48.16c0.666-22.262,2.671-26.469,12.671-26.469c4.71,0,8.533-3.814,8.533-8.533
			C354.116,182.089,350.293,178.267,345.583,178.267z"/>
	</g>
</g>
<g>
</g>
<g>
</g>
<g>
</g>
<g>
</g>
<g>
</g>
<g>
</g>
<g>
</g>
<g>
</g>
<g>
</g>
<g>
</g>
<g>
</g>
<g>
</g>
<g>
</g>
<g>
</g>
<g>
</g>
</svg>
