<?xml version="1.0" encoding="iso-8859-1"?>
<!-- Generator: Adobe Illustrator 19.0.0, SVG Export Plug-In . SVG Version: 6.00 Build 0)  -->
<svg version="1.1" id="Layer_1" xmlns="http://www.w3.org/2000/svg" xmlns:xlink="http://www.w3.org/1999/xlink" x="0px" y="0px"
	 viewBox="0 0 512 512" style="enable-background:new 0 0 512 512;" xml:space="preserve">
<g>
	<g>
		<path d="M256,0c-68.267,0-68.267,11.529-68.267,17.067V384c0,4.395,0.137,12.527,34.133,15.718v87.902
			c0,13.44,11.486,24.38,25.6,24.38h17.067c14.114,0,25.6-10.94,25.6-24.38v-87.902c33.997-3.191,34.133-11.324,34.133-15.718
			V17.067C324.267,11.529,324.267,0,256,0z M273.067,487.62c0,3.959-3.908,7.313-8.533,7.313h-17.067
			c-4.625,0-8.533-3.354-8.533-7.313v-86.869c5.197,0.188,10.752,0.316,17.067,0.316c6.315,0,11.87-0.128,17.067-0.307V487.62z
			 M307.2,379.605C300.834,381.423,284.023,384,256,384c-28.023,0-44.834-2.577-51.2-4.395v-55.339h102.4V379.605z M307.2,307.2
			H204.8v-59.733h102.4V307.2z M307.2,230.4H204.8v-59.733h102.4V230.4z M307.2,153.6H204.8V93.867h102.4V153.6z M307.2,76.8H204.8
			V21.461c6.366-1.818,23.177-4.395,51.2-4.395c28.023,0,44.834,2.577,51.2,4.395V76.8z"/>
	</g>
</g>
<g>
</g>
<g>
</g>
<g>
</g>
<g>
</g>
<g>
</g>
<g>
</g>
<g>
</g>
<g>
</g>
<g>
</g>
<g>
</g>
<g>
</g>
<g>
</g>
<g>
</g>
<g>
</g>
<g>
</g>
</svg>
