<?xml version="1.0" encoding="iso-8859-1"?>
<!-- Generator: Adobe Illustrator 19.0.0, SVG Export Plug-In . SVG Version: 6.00 Build 0)  -->
<svg version="1.1" id="Layer_1" xmlns="http://www.w3.org/2000/svg" xmlns:xlink="http://www.w3.org/1999/xlink" x="0px" y="0px"
	 viewBox="0 0 512 512" style="enable-background:new 0 0 512 512;" xml:space="preserve">
<g>
	<g>
		<path d="M357.625,90.417C351.615,39.438,307.764,0,256,0c-52.387,0-95.641,38.738-101.651,90.442
			c-23.586,18.788-38.772,47.684-38.772,80.105c0,27.385,11.217,53.839,30.722,73.02l110.375,263.2
			c1.332,3.176,4.439,5.233,7.87,5.233c0.077,0,0.162,0,0.239,0c3.526-0.102,6.624-2.356,7.802-5.677l93.302-262.936
			c19.386-19.164,30.534-45.533,30.534-72.84C396.422,138.109,381.219,109.205,357.625,90.417z M256,17.073
			c38.14,0,71.142,25.686,81.744,61.001c-13.291-6.317-28.093-9.953-43.757-9.953c-13.163,0-25.925,2.535-38.021,7.375
			c-11.746-4.712-24.533-7.384-37.953-7.384c-15.724,0-30.569,3.662-43.885,10.022C184.568,42.391,217.322,17.073,256,17.073z
			 M132.65,170.547c0-47.069,38.294-85.363,85.363-85.363s85.363,38.294,85.363,85.363c0,22.647-8.75,43.706-24.542,59.754H157.192
			C141.4,214.253,132.65,193.194,132.65,170.547z M263.87,479.81l-97.468-232.436h179.946L263.87,479.81z M354.808,230.301h-53.693
			c12.403-17.303,19.335-38.243,19.335-59.754c0-34.547-17.243-65.098-43.527-83.664c5.574-1.127,11.276-1.699,17.064-1.699
			c47.069,0,85.363,38.294,85.363,85.363C379.35,193.194,370.6,214.253,354.808,230.301z"/>
	</g>
</g>
<g>
</g>
<g>
</g>
<g>
</g>
<g>
</g>
<g>
</g>
<g>
</g>
<g>
</g>
<g>
</g>
<g>
</g>
<g>
</g>
<g>
</g>
<g>
</g>
<g>
</g>
<g>
</g>
<g>
</g>
</svg>
