<?xml version="1.0" encoding="iso-8859-1"?>
<!-- Generator: Adobe Illustrator 19.0.0, SVG Export Plug-In . SVG Version: 6.00 Build 0)  -->
<svg version="1.1" id="Layer_1" xmlns="http://www.w3.org/2000/svg" xmlns:xlink="http://www.w3.org/1999/xlink" x="0px" y="0px"
	 viewBox="0 0 512 512" style="enable-background:new 0 0 512 512;" xml:space="preserve">
<g>
	<g>
		<path d="M334.797,42.667c4.062-4.531,6.536-10.513,6.536-17.067c0-14.114-11.486-25.6-25.6-25.6H196.267
			c-14.114,0-25.6,11.486-25.6,25.6c0,6.554,2.475,12.535,6.536,17.067c-4.062,4.531-6.536,10.513-6.536,17.067
			s2.475,12.535,6.536,17.067c-4.062,4.531-6.536,10.513-6.536,17.067c0,6.554,2.475,12.535,6.536,17.067
			c-4.062,4.531-6.536,10.513-6.536,17.067s2.475,12.535,6.536,17.067c-4.062,4.531-6.536,10.513-6.536,17.067
			s2.475,12.535,6.536,17.067c-4.062,4.531-6.536,10.513-6.536,17.067s2.475,12.535,6.536,17.067
			c-4.062,4.531-6.536,10.513-6.536,17.067s2.475,12.535,6.536,17.067c-4.062,4.531-6.536,10.513-6.536,17.067
			s2.475,12.536,6.536,17.067c-4.062,4.531-6.536,10.513-6.536,17.067s2.475,12.535,6.536,17.067
			c-4.062,4.531-6.536,10.513-6.536,17.067c0,14.114,11.486,25.6,25.6,25.6h25.6v129.22c0,13.44,11.486,24.38,25.6,24.38h17.067
			c14.114,0,25.6-10.94,25.6-24.38V358.4h25.6c14.114,0,25.6-11.486,25.6-25.6c0-6.554-2.475-12.535-6.536-17.067
			c4.062-4.531,6.536-10.513,6.536-17.067s-2.475-12.535-6.536-17.067c4.062-4.531,6.536-10.513,6.536-17.067
			s-2.475-12.535-6.536-17.067c4.062-4.531,6.536-10.513,6.536-17.067s-2.475-12.535-6.536-17.067
			c4.062-4.531,6.536-10.513,6.536-17.067s-2.475-12.535-6.536-17.067c4.062-4.531,6.536-10.513,6.536-17.067
			s-2.475-12.535-6.536-17.067c4.062-4.531,6.536-10.513,6.536-17.067s-2.475-12.535-6.536-17.067
			c4.062-4.531,6.536-10.513,6.536-17.067c0-6.554-2.475-12.536-6.536-17.067c4.062-4.531,6.536-10.513,6.536-17.067
			S338.859,47.198,334.797,42.667z M273.067,487.62c0,3.959-3.908,7.313-8.533,7.313h-17.067c-4.625,0-8.533-3.354-8.533-7.313
			V358.4h34.133V487.62z M315.733,341.333H196.267c-4.71,0-8.533-3.831-8.533-8.533c0-4.702,3.823-8.533,8.533-8.533h119.467
			c4.71,0,8.533,3.831,8.533,8.533C324.267,337.502,320.444,341.333,315.733,341.333z M315.733,307.2H196.267
			c-4.71,0-8.533-3.831-8.533-8.533s3.823-8.533,8.533-8.533h119.467c4.71,0,8.533,3.831,8.533,8.533S320.444,307.2,315.733,307.2z
			 M315.733,273.067H196.267c-4.71,0-8.533-3.831-8.533-8.533c0-4.702,3.823-8.533,8.533-8.533h119.467
			c4.71,0,8.533,3.831,8.533,8.533C324.267,269.235,320.444,273.067,315.733,273.067z M315.733,238.933H196.267
			c-4.71,0-8.533-3.831-8.533-8.533c0-4.702,3.823-8.533,8.533-8.533h119.467c4.71,0,8.533,3.831,8.533,8.533
			C324.267,235.102,320.444,238.933,315.733,238.933z M315.733,204.8H196.267c-4.71,0-8.533-3.831-8.533-8.533
			c0-4.702,3.823-8.533,8.533-8.533h119.467c4.71,0,8.533,3.831,8.533,8.533C324.267,200.969,320.444,204.8,315.733,204.8z
			 M315.733,170.667H196.267c-4.71,0-8.533-3.831-8.533-8.533c0-4.702,3.823-8.533,8.533-8.533h119.467
			c4.71,0,8.533,3.831,8.533,8.533C324.267,166.835,320.444,170.667,315.733,170.667z M315.733,136.533H196.267
			c-4.71,0-8.533-3.831-8.533-8.533s3.823-8.533,8.533-8.533h119.467c4.71,0,8.533,3.831,8.533,8.533
			S320.444,136.533,315.733,136.533z M315.733,102.4H196.267c-4.71,0-8.533-3.831-8.533-8.533c0-4.702,3.823-8.533,8.533-8.533
			h119.467c4.71,0,8.533,3.831,8.533,8.533C324.267,98.569,320.444,102.4,315.733,102.4z M315.733,68.267H196.267
			c-4.71,0-8.533-3.831-8.533-8.533s3.823-8.533,8.533-8.533h119.467c4.71,0,8.533,3.831,8.533,8.533S320.444,68.267,315.733,68.267
			z M315.733,34.133H196.267c-4.71,0-8.533-3.831-8.533-8.533c0-4.702,3.823-8.533,8.533-8.533h119.467
			c4.71,0,8.533,3.831,8.533,8.533C324.267,30.302,320.444,34.133,315.733,34.133z"/>
	</g>
</g>
<g>
</g>
<g>
</g>
<g>
</g>
<g>
</g>
<g>
</g>
<g>
</g>
<g>
</g>
<g>
</g>
<g>
</g>
<g>
</g>
<g>
</g>
<g>
</g>
<g>
</g>
<g>
</g>
<g>
</g>
</svg>
