<?xml version="1.0" encoding="iso-8859-1"?>
<!-- Generator: Adobe Illustrator 19.0.0, SVG Export Plug-In . SVG Version: 6.00 Build 0)  -->
<svg version="1.1" id="Layer_1" xmlns="http://www.w3.org/2000/svg" xmlns:xlink="http://www.w3.org/1999/xlink" x="0px" y="0px"
	 viewBox="0 0 512 512" style="enable-background:new 0 0 512 512;" xml:space="preserve">
<g>
	<g>
		<path d="M374.178,339.661v-0.009l-10.812-227.686c-0.188-3.874-2.671-7.177-6.323-8.422c-3.669-1.237-7.68-0.137-10.197,2.833
			c-3.115,3.661-8.969,6.383-16.051,3.081c-3.473-1.621-6.519-7.876-6.545-12.945c0.06-0.503,0.162-1.084,0.111-2.893
			c-0.085-3.098-1.852-5.905-4.608-7.33c-2.765-1.425-6.076-1.246-8.661,0.478c-8.175,5.444-15.147,7.663-21.308,6.758
			c-12.595-1.835-23.074-12.305-24.909-24.9c-1.118-7.637,0.512-15.01,4.71-21.308c1.835-2.756,1.69-6.298-0.017-9.131
			s-5.086-4.352-8.405-4.062c-4.343,0.213-8.286-1.468-10.632-4.437c-4.412-5.572-3.43-11.537-1.041-15.258
			c1.86-2.901,1.997-6.571,0.358-9.574C248.346,2.125,244.753,0,241.63,0h-55.091c-18.219,0-33.203,14.276-34.125,32.538
			l-14.592,307.123c-0.435,9.438,2.91,18.406,9.429,25.233c6.511,6.818,15.283,10.573,24.695,10.573h49.92V486.4
			c0,14.114,11.486,25.6,25.6,25.6h17.067c14.114,0,25.6-11.486,25.6-25.6V375.467h49.92c9.421,0,18.185-3.755,24.695-10.573
			C371.268,358.067,374.613,349.099,374.178,339.661z M273.075,486.4c0,4.702-3.831,8.533-8.533,8.533h-17.067
			c-4.702,0-8.533-3.831-8.533-8.533V375.467h34.133V486.4z M352.41,353.109c-3.251,3.413-7.646,5.291-12.348,5.291H171.955
			c-4.71,0-9.097-1.877-12.348-5.291c-3.268-3.422-4.949-7.919-4.727-12.646l14.583-307.098c0.461-9.139,7.962-16.299,17.075-16.299
			h44.134c-1.152,8.013,1.041,16.35,6.477,23.219c3.302,4.173,7.663,7.253,12.664,9.062c-2.253,6.921-2.901,14.353-1.826,21.743
			c2.953,20.207,19.132,36.386,39.339,39.33c7.057,1.016,14.234-0.009,21.769-3.191c2.475,7.398,7.347,14.37,14.481,17.698
			c7.688,3.584,16.026,3.934,23.381,1.365l10.172,214.17C357.359,345.199,355.678,349.688,352.41,353.109z"/>
	</g>
</g>
<g>
</g>
<g>
</g>
<g>
</g>
<g>
</g>
<g>
</g>
<g>
</g>
<g>
</g>
<g>
</g>
<g>
</g>
<g>
</g>
<g>
</g>
<g>
</g>
<g>
</g>
<g>
</g>
<g>
</g>
</svg>
