<?xml version="1.0" encoding="iso-8859-1"?>
<!-- Generator: Adobe Illustrator 19.0.0, SVG Export Plug-In . SVG Version: 6.00 Build 0)  -->
<svg version="1.1" id="Layer_1" xmlns="http://www.w3.org/2000/svg" xmlns:xlink="http://www.w3.org/1999/xlink" x="0px" y="0px"
	 viewBox="0 0 512 512" style="enable-background:new 0 0 512 512;" xml:space="preserve">
<g>
	<g>
		<path d="M341.231,340.002l-25.506-161.51c-0.068-2.577-0.802-6.707-8.806-10.18l-8.294-49.758
			c-0.375-4.89-3.814-8.311-8.747-10.726L281.6,17.067C281.6,7.177,270.831,0,256,0s-25.6,7.177-25.566,16.299l-8.32,91.529
			c-4.932,2.415-8.371,5.828-8.747,10.726l-8.294,49.758c-7.996,3.473-8.738,7.603-8.806,10.18l-25.498,161.51
			c-0.384,2.466,0.324,4.975,1.946,6.869c1.621,1.903,3.985,2.995,6.485,2.995h51.2V486.4c0,14.08,11.52,25.6,25.6,25.6
			s25.6-11.52,25.6-25.6V349.867h51.2c2.492,0,4.864-1.092,6.485-2.995C340.907,344.977,341.615,342.46,341.231,340.002z
			 M247.296,18.893c1.271-0.759,4.292-1.826,8.704-1.826c4.369,0,7.373,1.05,8.661,1.801l7.672,84.429
			c-5.734-0.691-11.529-0.896-16.333-0.896s-10.598,0.205-16.341,0.896L247.296,18.893z M229.939,122.957
			c3.499-1.476,12.774-3.49,26.061-3.49c13.286,0,22.562,2.014,26.061,3.49l6.827,40.969c-8.201-1.109-18.893-1.792-32.887-1.792
			s-24.687,0.683-32.887,1.792L229.939,122.957z M264.533,486.4c0,4.71-3.823,8.533-8.533,8.533s-8.533-3.823-8.533-8.533V349.867
			h17.067V486.4z M273.067,332.8h-34.133h-49.749l23.578-149.308c5.069-1.715,19.379-4.292,43.238-4.292s38.17,2.577,43.238,4.292
			L322.816,332.8H273.067z"/>
	</g>
</g>
<g>
</g>
<g>
</g>
<g>
</g>
<g>
</g>
<g>
</g>
<g>
</g>
<g>
</g>
<g>
</g>
<g>
</g>
<g>
</g>
<g>
</g>
<g>
</g>
<g>
</g>
<g>
</g>
<g>
</g>
</svg>
