<?xml version="1.0" encoding="iso-8859-1"?>
<!-- Generator: Adobe Illustrator 19.0.0, SVG Export Plug-In . SVG Version: 6.00 Build 0)  -->
<svg version="1.1" id="Layer_1" xmlns="http://www.w3.org/2000/svg" xmlns:xlink="http://www.w3.org/1999/xlink" x="0px" y="0px"
	 viewBox="0 0 512 512" style="enable-background:new 0 0 512 512;" xml:space="preserve">
<g>
	<g>
		<path d="M315.743,59.658c-4.72,0-8.535,3.824-8.535,8.535c0,2.543-1.169,4.967-3.201,6.632c0,0-0.009,0.009-0.017,0.009
			c-1.041,0.871-2.816,1.895-5.317,1.895c-2.842,0-5.505-1.417-7.109-3.772l-0.521-0.888c-3.081-5.138-11.343-5.513-14.424-0.375
			c-3.141,3.201-7.553,5.036-12.085,5.036c-4.737,0-8.782-2.552-13.314-6.316c-2.356-2.006-3.755-6.034-3.755-10.754
			c0-4.916,2.117-9.55,5.821-12.717c2.1-1.801,3.201-4.523,2.936-7.28c-0.265-2.765-1.844-5.223-4.259-6.606
			c-2.774-1.596-4.498-4.481-4.498-7.536c0-3.243,1.912-6.247,5.326-7.895c3.755-2.082,5.633-6.435,4.558-10.592
			C256.273,2.893,252.535,0,248.08,0c-60.358,1.058-60.358,11.419-60.358,16.984v358.46c0,11.607,14.509,15.081,25.604,16.361
			v26.313c0,7.536,3.337,14.253,8.535,18.947v50.526c0,13.459,11.488,24.409,25.604,24.409h17.069
			c14.117,0,25.604-10.95,25.604-24.409v-18.264c9.414,0,17.07-7.656,17.07-17.069v-63.635c9.158-1.886,17.07-5.215,17.07-13.178
			V68.193C324.278,63.482,320.463,59.658,315.743,59.658z M204.791,21.371c4.191-1.195,12.981-2.748,26.842-3.644
			c-0.802,2.492-1.238,5.112-1.238,7.792c0,5.744,1.971,11.249,5.437,15.704c-3.508,5.42-5.437,11.804-5.437,18.435
			c0,6.512,1.622,12.264,4.438,17.07h-30.042V21.371z M273.07,487.591c0,3.977-3.909,7.34-8.535,7.34h-17.069
			c-4.626,0-8.535-3.363-8.535-7.34v-43.869H256v8.535c0,9.414,7.656,17.07,17.07,17.07V487.591z M307.209,371.014
			c-1.861,0.546-4.933,1.263-9.815,1.972c-4.165,0.597-7.255,4.225-7.255,8.432v62.304c0,4.711-3.824,8.535-8.535,8.535
			s-8.535-3.824-8.535-8.535c0-9.431-7.639-17.07-17.07-17.07h-17.07c-4.711,0-8.535-3.824-8.535-8.535v-34.139
			c0-4.515-3.55-8.21-8.057-8.518c-10.532-0.717-15.439-2.04-17.547-2.842v-48.383h102.417V371.014z M307.209,307.166H204.791
			v-59.743h102.417V307.166z M307.209,230.353H204.791V170.61h102.417V230.353z M307.209,153.54H204.791V93.797h102.417V153.54z"/>
	</g>
</g>
<g>
</g>
<g>
</g>
<g>
</g>
<g>
</g>
<g>
</g>
<g>
</g>
<g>
</g>
<g>
</g>
<g>
</g>
<g>
</g>
<g>
</g>
<g>
</g>
<g>
</g>
<g>
</g>
<g>
</g>
</svg>
