<?xml version="1.0" encoding="iso-8859-1"?>
<!-- Generator: Adobe Illustrator 19.0.0, SVG Export Plug-In . SVG Version: 6.00 Build 0)  -->
<svg version="1.1" id="Layer_1" xmlns="http://www.w3.org/2000/svg" xmlns:xlink="http://www.w3.org/1999/xlink" x="0px" y="0px"
	 viewBox="0 0 512 512" style="enable-background:new 0 0 512 512;" xml:space="preserve">
<g>
	<g>
		<path d="M375.287,110.601C372.855,48.58,320.469,0,256,0S139.145,48.58,136.772,109.85c-0.213,1.715-0.239,3.533-0.239,5.35v243.2
			c0,14.114,11.793,25.6,26.283,25.6h59.051v102.4c0,14.114,11.486,25.6,25.6,25.6h17.067c14.114,0,25.6-11.486,25.6-25.6V384
			h59.051c14.49,0,26.283-11.486,26.283-25.6V115.2C375.467,113.382,375.441,111.565,375.287,110.601z M256,17.067
			c54.878,0,99.507,40.832,102.195,93.867H153.796C156.041,58.274,200.858,17.067,256,17.067z M273.067,486.4
			c0,4.702-3.823,8.533-8.533,8.533h-17.067c-4.71,0-8.533-3.831-8.533-8.533V384h34.133V486.4z M358.4,358.4
			c0,4.702-4.13,8.533-9.216,8.533H162.816c-5.086,0-9.216-3.831-9.216-8.533V256h204.8V358.4z M358.4,238.933H153.6V128h204.8
			V238.933z"/>
	</g>
</g>
<g>
</g>
<g>
</g>
<g>
</g>
<g>
</g>
<g>
</g>
<g>
</g>
<g>
</g>
<g>
</g>
<g>
</g>
<g>
</g>
<g>
</g>
<g>
</g>
<g>
</g>
<g>
</g>
<g>
</g>
</svg>
