<?xml version="1.0" encoding="iso-8859-1"?>
<!-- Generator: Adobe Illustrator 19.0.0, SVG Export Plug-In . SVG Version: 6.00 Build 0)  -->
<svg version="1.1" id="Layer_1" xmlns="http://www.w3.org/2000/svg" xmlns:xlink="http://www.w3.org/1999/xlink" x="0px" y="0px"
	 viewBox="0 0 511.988 511.988" style="enable-background:new 0 0 511.988 511.988;" xml:space="preserve">
<g>
	<g>
		<path d="M407.111,25.73c-52.029-40.293-125.799-32.36-167.423,17.477c-1.245,1.237-161.904,208.619-161.904,208.619
			c-9.007,11.651-6.849,28.445,4.793,37.444l49.82,38.604l-72.286,93.328c-5.493,12.478-1.987,25.153,7.31,32.352l13.485,10.448
			c4.657,3.599,10.167,5.339,15.643,5.339c7.642,0,15.225-3.403,20.257-9.911l69.531-89.78l21.579,16.726
			c4.179,3.233,7.591,10.201,7.591,15.481V486.4c0,14.133,11.455,25.588,25.588,25.588h25.588c14.133,0,25.588-11.455,25.588-25.588
			v-34.117c0-4.708,3.821-8.529,8.529-8.529h17.059c14.133,0,25.588-11.455,25.588-25.588V301.791
			c0,0,87.716-108.195,88.347-109.159C469.844,139.204,459.012,65.92,407.111,25.73z M103.312,448.99
			c-2.874,3.71-8.256,4.393-11.967,1.518l-13.485-10.44c-1.8-1.399-2.951-3.412-3.241-5.672c-0.281-2.26,0.324-4.495,1.723-6.295
			l69.54-89.789l26.961,20.888L103.312,448.99z M417.798,182.874c-0.085,0.119-89.498,110.506-89.498,110.506
			c-1.245,1.518-1.919,3.42-1.919,5.382v119.411c0,4.708-3.821,8.529-8.529,8.529h-17.059c-14.133,0-25.588,11.455-25.588,25.588
			v34.117c0,4.708-3.821,8.529-8.529,8.529h-25.588c-4.708,0-8.529-3.821-8.529-8.529v-84.543c0-9.877-6.388-22.91-14.193-28.957
			L93.009,275.776c-4.273-3.309-5.032-9.246-1.731-13.51c0,0,159.695-206.223,160.974-207.545
			c20.692-24.761,50.264-37.597,80.159-37.597c22.441,0,45.061,7.233,64.243,22.091C441.347,73.818,450.636,136.927,417.798,182.874
			z"/>
	</g>
</g>
<g>
</g>
<g>
</g>
<g>
</g>
<g>
</g>
<g>
</g>
<g>
</g>
<g>
</g>
<g>
</g>
<g>
</g>
<g>
</g>
<g>
</g>
<g>
</g>
<g>
</g>
<g>
</g>
<g>
</g>
</svg>
