<?xml version="1.0" encoding="iso-8859-1"?>
<!-- Generator: Adobe Illustrator 19.0.0, SVG Export Plug-In . SVG Version: 6.00 Build 0)  -->
<svg version="1.1" id="Layer_1" xmlns="http://www.w3.org/2000/svg" xmlns:xlink="http://www.w3.org/1999/xlink" x="0px" y="0px"
	 viewBox="0 0 512 512" style="enable-background:new 0 0 512 512;" xml:space="preserve">
<g>
	<g>
		<path d="M256,0c-4.71,0-8.533,3.823-8.533,8.533c0,18.509-11.392,29.739-20.958,35.9c-15.957,10.291-38.946,13.594-52.318,7.526
			c-4.139-1.869-9.045-0.171-11.127,3.891c-6.451,12.646-9.464,27.435-9.464,46.549v238.933c0,18.825,15.309,34.133,34.133,34.133
			h34.133V486.4c0,14.114,11.486,25.6,25.6,25.6h17.067c14.114,0,25.6-11.486,25.6-25.6V375.467h34.133
			c18.825,0,34.133-15.309,34.133-34.133V102.4C358.4,45.935,312.465,0,256,0z M273.067,486.4c0,4.702-3.831,8.533-8.533,8.533
			h-17.067c-4.702,0-8.533-3.831-8.533-8.533V375.467h34.133V486.4z M341.333,341.333c0,9.412-7.654,17.067-17.067,17.067H187.733
			c-9.412,0-17.067-7.654-17.067-17.067V102.4c0-12.885,1.51-23.279,4.693-32.085c18.261,4.48,42.24,0.162,60.39-11.537
			c15.812-10.189,25.574-24.644,28.117-41.353c43.375,3.985,77.466,40.576,77.466,84.975V341.333z"/>
	</g>
</g>
<g>
	<g>
		<path d="M321.766,87.834c-3.337-3.337-8.73-3.337-12.066,0l-8.533,8.533c-3.337,3.337-3.337,8.73,0,12.066
			c1.664,1.664,3.849,2.5,6.033,2.5c2.185,0,4.369-0.836,6.033-2.5l8.533-8.533C325.103,96.563,325.103,91.17,321.766,87.834z"/>
	</g>
</g>
<g>
	<g>
		<path d="M287.633,62.234L279.1,53.7c-3.337-3.337-8.73-3.337-12.066,0s-3.336,8.73,0,12.066l8.533,8.533
			c1.664,1.664,3.849,2.5,6.033,2.5c2.185,0,4.369-0.836,6.033-2.5C290.97,70.963,290.97,65.57,287.633,62.234z"/>
	</g>
</g>
<g>
	<g>
		<path d="M244.966,87.834l-8.533-8.533c-3.336-3.337-8.73-3.337-12.066,0c-3.337,3.336-3.337,8.73,0,12.066L232.9,99.9
			c1.664,1.664,3.849,2.5,6.033,2.5c2.185,0,4.369-0.836,6.033-2.5C248.303,96.563,248.303,91.17,244.966,87.834z"/>
	</g>
</g>
<g>
	<g>
		<path d="M210.833,113.434c-3.337-3.337-8.73-3.337-12.066,0l-8.533,8.533c-3.337,3.337-3.337,8.73,0,12.066
			c1.664,1.664,3.849,2.5,6.033,2.5s4.369-0.836,6.033-2.5l8.533-8.533C214.17,122.163,214.17,116.77,210.833,113.434z"/>
	</g>
</g>
<g>
	<g>
		<path d="M221.867,153.6c-4.71,0-8.533,3.823-8.533,8.533v8.533c0,4.71,3.823,8.533,8.533,8.533c4.71,0,8.533-3.823,8.533-8.533
			v-8.533C230.4,157.423,226.577,153.6,221.867,153.6z"/>
	</g>
</g>
<g>
	<g>
		<path d="M281.6,128h-8.533c-4.71,0-8.533,3.823-8.533,8.533s3.823,8.533,8.533,8.533h8.533c4.71,0,8.533-3.823,8.533-8.533
			S286.31,128,281.6,128z"/>
	</g>
</g>
<g>
	<g>
		<path d="M321.766,156.1c-3.337-3.337-8.73-3.337-12.066,0l-8.533,8.533c-3.337,3.337-3.337,8.73,0,12.066
			c1.664,1.664,3.849,2.5,6.033,2.5c2.185,0,4.369-0.836,6.033-2.5l8.533-8.533C325.103,164.83,325.103,159.437,321.766,156.1z"/>
	</g>
</g>
<g>
	<g>
		<path d="M321.766,232.9c-3.337-3.336-8.73-3.337-12.066,0l-8.533,8.533c-3.337,3.337-3.337,8.73,0,12.066
			c1.664,1.664,3.849,2.5,6.033,2.5c2.185,0,4.369-0.836,6.033-2.5l8.533-8.533C325.103,241.63,325.103,236.237,321.766,232.9z"/>
	</g>
</g>
<g>
	<g>
		<path d="M296.166,318.234l-8.533-8.533c-3.337-3.336-8.73-3.336-12.066,0c-3.336,3.337-3.336,8.73,0,12.066l8.533,8.533
			c1.664,1.664,3.849,2.5,6.033,2.5c2.185,0,4.369-0.836,6.033-2.5C299.503,326.963,299.503,321.57,296.166,318.234z"/>
	</g>
</g>
<g>
	<g>
		<path d="M219.366,301.167c-3.337-3.337-8.73-3.336-12.066,0l-8.533,8.533c-3.336,3.337-3.336,8.73,0,12.066
			c1.664,1.664,3.849,2.5,6.033,2.5s4.369-0.836,6.033-2.5l8.533-8.533C222.703,309.897,222.703,304.503,219.366,301.167z"/>
	</g>
</g>
<g>
	<g>
		<path d="M281.6,189.867c-28.459,0-29.227,25.899-29.73,43.025c-0.623,21.009-2.185,29.961-15.07,31.582
			c-12.877-1.621-14.438-10.573-15.07-31.582c-0.503-17.126-1.271-43.025-29.73-43.025c-4.71,0-8.533,3.823-8.533,8.533
			s3.823,8.533,8.533,8.533c10.001,0,12.015,4.207,12.672,26.47c0.538,18.005,1.34,45.21,31.292,48.162l0.836,0.085l0.836-0.085
			c29.943-2.953,30.754-30.157,31.292-48.162c0.657-22.263,2.671-26.47,12.672-26.47c4.71,0,8.533-3.823,8.533-8.533
			S286.31,189.867,281.6,189.867z"/>
	</g>
</g>
<g>
</g>
<g>
</g>
<g>
</g>
<g>
</g>
<g>
</g>
<g>
</g>
<g>
</g>
<g>
</g>
<g>
</g>
<g>
</g>
<g>
</g>
<g>
</g>
<g>
</g>
<g>
</g>
<g>
</g>
</svg>
